<?xml version="1.0" standalone="no"?>
<!DOCTYPE svg PUBLIC "-//W3C//DTD SVG 20010904//EN"
 "http://www.w3.org/TR/2001/REC-SVG-20010904/DTD/svg10.dtd">
<svg version="1.0" xmlns="http://www.w3.org/2000/svg"
 width="300.000000pt" height="288.000000pt" viewBox="0 0 300.000000 288.000000"
 preserveAspectRatio="xMidYMid meet">
<metadata>
Created by potrace 1.10, written by Peter Selinger 2001-2011
</metadata>
<g transform="translate(0.000000,288.000000) scale(0.050000,-0.050000)"
fill="#d5a6bd" stroke="none">
<path d="M2794 5629 c-662 -89 -1322 -442 -1704 -911 -55 -68 -110 -134 -123
-147 -139 -145 -507 -889 -507 -1027 0 -20 -26 -61 -57 -91 -211 -202 -239
-581 -62 -817 98 -130 87 -153 -110 -225 -121 -44 -151 -63 -151 -96 0 -41 62
-43 327 -10 30 4 44 -22 76 -145 255 -973 1079 -1763 2067 -1979 252 -55 894
-83 920 -41 7 12 21 16 31 9 20 -12 457 87 489 111 11 8 56 26 100 40 597 190
1199 716 1509 1319 1024 1994 -595 4308 -2805 4010z m-594 -1209 c375 -37 604
-121 751 -275 166 -172 449 -824 554 -1271 l42 -181 -54 -101 c-90 -173 -307
-444 -469 -586 -422 -371 -670 -761 -617 -971 48 -193 800 -245 1220 -83 22 8
33 -11 43 -76 18 -113 87 -264 190 -416 100 -148 112 -134 -165 -203 -1322
-329 -2753 548 -3133 1922 l-38 137 63 12 c87 15 851 112 887 112 170 0 191
332 25 400 -59 25 -62 32 -51 102 66 412 -404 791 -807 651 -117 -41 -116 -48
-20 190 93 234 125 270 364 410 362 213 708 277 1215 227z m-1601 -1079 c61
-113 17 -321 -79 -371 -132 -68 -200 -29 -200 116 0 209 204 395 279 255z"/>
<path d="M2287 3833 c-663 -217 -505 -1202 193 -1202 645 0 848 870 271 1164
-122 62 -336 79 -464 38z m10 -280 c74 -155 -34 -373 -185 -373 -85 0 -112 31
-111 129 3 234 217 410 296 244z"/>
</g>
</svg>
